<svg width="207" height="193" viewBox="0 0 207 193" fill="none" xmlns="http://www.w3.org/2000/svg">
<g clip-path="url(#clip0_502_2671)">
<path d="M207.162 163.382C214.019 164.768 220.273 168.318 225.036 173.528C226.08 174.631 226.948 175.895 227.606 177.273C228.204 178.637 228.433 180.138 228.269 181.622C228.142 183.009 227.856 184.412 228.063 185.806C228.179 186.518 228.442 187.197 228.835 187.798C229.227 188.399 229.74 188.909 230.339 189.294C231.809 190.294 233.543 190.696 235.253 191.03C237.151 191.401 239.128 191.755 240.713 192.962C240.905 193.108 241.116 192.796 240.925 192.65C238.168 190.551 234.475 190.991 231.459 189.509C230.052 188.817 228.841 187.69 228.493 186.088C228.188 184.686 228.483 183.239 228.622 181.836C228.804 180.391 228.635 178.922 228.13 177.559C227.543 176.151 226.725 174.855 225.71 173.727C223.467 171.15 220.839 168.948 217.924 167.202C214.607 165.19 210.977 163.77 207.19 163.004C206.956 162.957 206.929 163.335 207.162 163.382Z" fill="white"/>
<path d="M139.091 10.4158C138.739 10.839 138.488 11.3314 138.354 11.8584C138.221 12.3855 138.209 12.9342 138.32 13.4661C138.431 13.9979 138.661 14.4999 138.995 14.9367C139.329 15.3736 139.758 15.7345 140.252 15.9943L138 29L144.5 26.2206L145.642 14.2962C146.04 13.4673 146.109 12.5266 145.835 11.6523C145.561 10.778 144.963 10.0309 144.156 9.5526C143.348 9.07428 142.387 8.89796 141.453 9.05705C140.52 9.21614 139.68 9.69959 139.091 10.4158Z" fill="#FFF3DE"/>
<path d="M193.999 187L189.256 187L187 168L194 168L193.999 187Z" fill="#FFF3DE"/>
<path d="M196 193L180 192.999V192.779C180 190.981 180.656 189.257 181.824 187.986C182.992 186.714 184.576 186 186.228 186H186.228L196 186L196 193Z" fill="#494949"/>
<path d="M159.999 187L155.256 187L153 168L160 168L159.999 187Z" fill="#FFF3DE"/>
<path d="M162 193L146 192.999V192.779C146 190.981 146.656 189.257 147.824 187.986C148.992 186.714 150.576 186 152.228 186H152.228L162 186L162 193Z" fill="#494949"/>
<path d="M158.549 97L156.645 99.4911C156.645 99.4911 156.473 100.654 153.584 110.132L152 181.369H161.584L174.395 124.371L187.692 182.512L196 183L195.609 116.916C195.609 116.916 196.659 103.321 192.939 100.796C189.219 98.2711 158.549 97 158.549 97Z" fill="#494949"/>
<path d="M171 37C176.523 37 181 32.5228 181 27C181 21.4772 176.523 17 171 17C165.477 17 161 21.4772 161 27C161 32.5228 165.477 37 171 37Z" fill="#FFF3DE"/>
<path d="M181.761 29L181.594 28.6637C181.336 28.1435 179.202 23.8191 178.934 22.7072L176.247 23.026L169.252 23.0271L170.224 21.5562L167.654 21.8944C166.715 22.0095 165.817 22.3511 165.036 22.8902C164.556 23.2113 164.151 23.6327 163.848 24.1257C162.93 25.7117 161.527 28.3058 161.513 28.3318L161.379 28.58L160.214 26.6021C160.198 26.5254 158.754 18.925 163.588 16.3473C163.837 15.8365 165.962 11.8182 170.982 12.0895C171.534 11.4547 172.312 11.0648 173.146 11.0041C174.293 10.9437 175.483 11.5514 176.679 12.8178C178.266 14.4998 180.441 16.8032 181.756 19.3608L182.119 19.883C182.635 20.6304 182.89 21.5291 182.845 22.4385C183.124 23.8899 183.025 25.3896 182.557 26.7906L181.761 29Z" fill="#494949"/>
<path d="M179.468 39L185.045 42.0317L196 45.0486L192.73 73.2454L193.325 101.02C193.325 101.02 174.781 113.514 157 98.9225V63.9624L158.052 45.0486C158.052 45.0486 162.307 43.8597 164.449 45.9106L168.513 40.719L179.468 39Z" fill="#D9D9D9"/>
<path d="M160 47.7043L157.59 45.1097L144.312 43.6029L145.558 23.1735L138.319 18L133 46.7608L157.569 64L160 47.7043Z" fill="#D9D9D9"/>
<path d="M187.065 110.937C186.964 110.403 186.981 109.854 187.114 109.327C187.247 108.8 187.492 108.31 187.834 107.889C188.175 107.469 188.603 107.129 189.089 106.893C189.575 106.658 190.106 106.533 190.645 106.526L194.799 94L199 99.4008L194.411 110.468C194.361 111.382 193.981 112.245 193.342 112.894C192.703 113.544 191.85 113.935 190.944 113.993C190.039 114.05 189.144 113.771 188.429 113.208C187.714 112.645 187.228 111.837 187.065 110.937Z" fill="#FFF3DE"/>
<path d="M191.188 48.2436L195.205 45C195.205 45 199.312 47.2943 200.562 51.408C201.812 55.5217 204 78.9383 204 78.9383L198.062 109L191.422 104.337L194.625 80.5205L189 63.1163L191.188 48.2436Z" fill="#D9D9D9"/>
<path d="M140 0H37V25H140V0Z" fill="#D9D9D9"/>
<path d="M40 23H137V3H40V23Z" fill="white"/>
<path d="M58.5 20C62.6421 20 66 16.6421 66 12.5C66 8.35786 62.6421 5 58.5 5C54.3579 5 51 8.35786 51 12.5C51 16.6421 54.3579 20 58.5 20Z" fill="#16B378"/>
<path d="M126 10H76V12H126V10Z" fill="#16B378"/>
<path d="M126 14H76V16H126V14Z" fill="#16B378"/>
<path d="M0 38L87 44.3048V67L0 65.3949V38Z" fill="#D9D9D9"/>
<path d="M3 62.0299L85 64V46.4024L3 41V62.0299Z" fill="white"/>
<path d="M21.1008 45.0127C22.0501 45.0748 22.9746 45.3461 23.8098 45.8077C24.6475 46.2718 25.3906 46.893 25.9996 47.6381C26.6326 48.409 27.1284 49.2856 27.4648 50.2288C27.8197 51.2211 28.0008 52.2687 27.9999 53.3242C28.0037 54.3637 27.8224 55.3954 27.4648 56.3697C27.1331 57.2746 26.636 58.1079 25.9996 58.826C25.3886 59.5162 24.6429 60.0703 23.8098 60.4534C22.9592 60.8406 22.0328 61.0265 21.1008 60.997C20.1469 60.9663 19.2115 60.7227 18.3612 60.2835C17.4999 59.8371 16.7323 59.2255 16.1009 58.4825C15.4385 57.7059 14.9185 56.8155 14.5654 55.8533C14.1907 54.8371 13.9992 53.7609 14.0001 52.6761C13.9959 51.6073 14.1876 50.5471 14.5654 49.5493C14.914 48.6279 15.4356 47.7837 16.1013 47.0636C16.7354 46.3774 17.5057 45.8351 18.3616 45.4725C19.228 45.1093 20.165 44.952 21.1008 45.0127Z" fill="#D9D9D9"/>
<path d="M37 50L77 52.3164V54L37 51.8403V50Z" fill="#D9D9D9"/>
<path d="M37 55L77 56.5938V58L37 56.5371V55Z" fill="#D9D9D9"/>
<path d="M0 84.6047L87 83V105.695L0 112V84.6047Z" fill="#D9D9D9"/>
<path d="M3 108L85 102.597V85L3 86.9702V108Z" fill="white"/>
<path d="M14.0084 96.9568C14.0505 95.8727 14.2848 94.8052 14.6999 93.8052C15.0897 92.8629 15.6438 91.9995 16.3357 91.2564C16.9942 90.5464 17.7838 89.9744 18.6597 89.5728C19.5259 89.1774 20.468 88.9822 21.4178 89.0013C22.35 89.0206 23.2656 89.2544 24.0956 89.6849C24.9117 90.1118 25.6326 90.7041 26.2136 91.4251C26.8196 92.176 27.2822 93.0349 27.5776 93.9577C27.8958 94.9494 28.0362 95.9908 27.9921 97.0327C27.9522 98.0872 27.7306 99.1264 27.3375 100.104C26.9656 101.03 26.4363 101.883 25.7735 102.624C25.1369 103.338 24.3709 103.922 23.5169 104.344C22.6641 104.763 21.7307 104.987 20.7829 105C19.8445 105.011 18.9159 104.804 18.0683 104.396C17.2285 103.987 16.4826 103.404 15.8788 102.685C15.2439 101.929 14.7578 101.057 14.447 100.116C14.1104 99.0992 13.9617 98.0283 14.0084 96.9568Z" fill="#D9D9D9"/>
<path d="M37 93.4629L77 92V93.4062L37 95V93.4629Z" fill="#D9D9D9"/>
<path d="M37 98.1593L77 96V97.6836L37 100V98.1593Z" fill="#D9D9D9"/>
<path d="M205.799 193H129.201C129.148 193 129.097 192.947 129.059 192.854C129.021 192.76 129 192.633 129 192.5C129 192.367 129.021 192.24 129.059 192.146C129.097 192.053 129.148 192 129.201 192H205.799C205.852 192 205.903 192.053 205.941 192.146C205.979 192.24 206 192.367 206 192.5C206 192.633 205.979 192.76 205.941 192.854C205.903 192.947 205.852 193 205.799 193Z" fill="#D9D9D9"/>
</g>
<defs>
<clipPath id="clip0_502_2671">
<rect width="207" height="193" fill="white"/>
</clipPath>
</defs>
</svg>
