<svg width="150" height="120" viewBox="0 0 150 120" fill="none" xmlns="http://www.w3.org/2000/svg">
<g clip-path="url(#clip0_502_2968)">
<path d="M91.0329 56.5115C91.3331 56.2908 91.6801 56.136 92.0493 56.058C92.4186 55.98 92.8012 55.9807 93.1702 56.06C93.5391 56.1393 93.8855 56.2953 94.1849 56.517C94.4842 56.7387 94.7293 57.0207 94.9029 57.3432L104 56.0865L101.965 60.2349L93.6385 60.7924C93.0549 61.0364 92.3983 61.0664 91.7932 60.8767C91.1881 60.687 90.6764 60.2908 90.3552 59.7631C90.0341 59.2354 89.9256 58.613 90.0505 58.0137C90.1754 57.4144 90.525 56.8799 91.0329 56.5115Z" fill="#FFF3DE"/>
<path d="M2.5 5C3.88071 5 5 3.88071 5 2.5C5 1.11929 3.88071 0 2.5 0C1.11929 0 0 1.11929 0 2.5C0 3.88071 1.11929 5 2.5 5Z" fill="#16B378"/>
<path d="M12.2411 1C11.912 1 11.5963 1.10536 11.3635 1.29289C11.1308 1.48042 11 1.73477 11 1.99999C11 2.2652 11.1308 2.51955 11.3635 2.70709C11.5963 2.89462 11.912 2.99997 12.2411 2.99997H70.7497C71.077 3.00189 71.3919 2.89962 71.626 2.71541C71.8601 2.5312 71.9945 2.27996 71.9998 2.01634C72.0052 1.75272 71.8812 1.49806 71.6547 1.30776C71.4282 1.11746 71.1176 1.00691 70.7905 1.00018H70.7497L12.2411 1Z" fill="#16B378"/>
<path d="M2.5 17C3.88071 17 5 15.8807 5 14.5C5 13.1193 3.88071 12 2.5 12C1.11929 12 0 13.1193 0 14.5C0 15.8807 1.11929 17 2.5 17Z" fill="#16B378"/>
<path d="M12.2406 13C11.9116 13 11.596 13.1053 11.3634 13.2928C11.1307 13.4803 11 13.7347 11 13.9998C11 14.265 11.1307 14.5193 11.3634 14.7068C11.596 14.8943 11.9116 14.9996 12.2406 14.9996H70.7263C70.8893 15.0031 71.0515 14.9807 71.2037 14.9336C71.356 14.8866 71.4952 14.8158 71.6134 14.7253C71.7317 14.6349 71.8267 14.5265 71.8929 14.4064C71.9592 14.2864 71.9954 14.157 71.9996 14.0256C72.0038 13.8943 71.9758 13.7635 71.9172 13.6409C71.8586 13.5183 71.7706 13.4062 71.6583 13.3109C71.5459 13.2157 71.4113 13.1393 71.2623 13.086C71.1132 13.0328 70.9526 13.0037 70.7896 13.0005C70.7821 13.0003 70.7745 13.0002 70.767 13.0002H70.7263L12.2406 13Z" fill="#16B378"/>
<path d="M2.5 28C3.88071 28 5 26.8807 5 25.5C5 24.1193 3.88071 23 2.5 23C1.11929 23 0 24.1193 0 25.5C0 26.8807 1.11929 28 2.5 28Z" fill="#D9D9D9"/>
<path d="M12.2407 24C12.0777 24 11.9164 24.0259 11.7659 24.0761C11.6154 24.1264 11.4786 24.2 11.3634 24.2928C11.2482 24.3857 11.1568 24.4959 11.0944 24.6172C11.0321 24.7385 11 24.8685 11 24.9998C11 25.1311 11.0321 25.2612 11.0944 25.3825C11.1568 25.5038 11.2482 25.614 11.3634 25.7068C11.4786 25.7997 11.6154 25.8733 11.7659 25.9236C11.9164 25.9738 12.0777 25.9997 12.2407 25.9997H70.7275C71.0565 26.0064 71.3753 25.9076 71.6139 25.7249C71.8525 25.5423 71.9912 25.2907 71.9996 25.0256C72.008 24.7605 71.8854 24.5036 71.6587 24.3113C71.432 24.1191 71.1199 24.0072 70.7909 24.0005C70.7834 24.0003 70.7758 24.0002 70.7683 24.0002H70.7276L12.2407 24Z" fill="#D9D9D9"/>
<path d="M2.5 40C3.88071 40 5 38.8807 5 37.5C5 36.1193 3.88071 35 2.5 35C1.11929 35 0 36.1193 0 37.5C0 38.8807 1.11929 40 2.5 40Z" fill="#16B378"/>
<path d="M12.2411 36C11.912 36 11.5963 36.1054 11.3635 36.2929C11.1308 36.4804 11 36.7348 11 37C11 37.2652 11.1308 37.5195 11.3635 37.7071C11.5963 37.8946 11.912 38 12.2411 38H70.7497C71.077 38.0019 71.3919 37.8996 71.626 37.7154C71.8601 37.5312 71.9945 37.28 71.9998 37.0163C72.0052 36.7527 71.8812 36.4981 71.6547 36.3078C71.4282 36.1175 71.1176 36.0069 70.7905 36.0002H70.7497L12.2411 36Z" fill="#16B378"/>
<path d="M2.5 52C3.88071 52 5 50.8807 5 49.5C5 48.1193 3.88071 47 2.5 47C1.11929 47 0 48.1193 0 49.5C0 50.8807 1.11929 52 2.5 52Z" fill="#D9D9D9"/>
<path d="M12.2407 48C11.9116 48 11.5961 48.1053 11.3634 48.2928C11.1307 48.4804 11 48.7347 11 48.9998C11 49.265 11.1307 49.5193 11.3634 49.7068C11.5961 49.8943 11.9116 49.9997 12.2407 49.9997H70.7274C70.8902 50.003 71.0524 49.9805 71.2045 49.9334C71.3565 49.8863 71.4956 49.8155 71.6138 49.7251C71.7319 49.6346 71.8268 49.5263 71.893 49.4063C71.9592 49.2863 71.9954 49.157 71.9996 49.0258C72.0038 48.8945 71.9758 48.7638 71.9174 48.6413C71.8589 48.5187 71.771 48.4066 71.6588 48.3114C71.5466 48.2162 71.4122 48.1397 71.2633 48.0864C71.1144 48.033 70.954 48.0039 70.7911 48.0005C70.7834 48.0003 70.7758 48.0002 70.7681 48.0002H70.7274L12.2407 48Z" fill="#D9D9D9"/>
<path d="M2.5 63C3.88071 63 5 61.8807 5 60.5C5 59.1193 3.88071 58 2.5 58C1.11929 58 0 59.1193 0 60.5C0 61.8807 1.11929 63 2.5 63Z" fill="#16B378"/>
<path d="M12.2407 59C11.9116 59 11.5961 59.1053 11.3634 59.2928C11.1307 59.4804 11 59.7347 11 59.9998C11 60.265 11.1307 60.5193 11.3634 60.7068C11.5961 60.8943 11.9116 60.9997 12.2407 60.9997H70.7274C71.0563 61.0065 71.3752 60.9077 71.6138 60.7251C71.8524 60.5424 71.9911 60.2909 71.9996 60.0258C72.008 59.7606 71.8855 59.5037 71.6588 59.3114C71.4322 59.1191 71.12 59.0073 70.7911 59.0005C70.7834 59.0003 70.7758 59.0002 70.7681 59.0002H70.7274L12.2407 59Z" fill="#16B378"/>
<path d="M2.5 75C3.88071 75 5 73.8807 5 72.5C5 71.1193 3.88071 70 2.5 70C1.11929 70 0 71.1193 0 72.5C0 73.8807 1.11929 75 2.5 75Z" fill="#D9D9D9"/>
<path d="M12.2411 71C11.912 71 11.5963 71.1054 11.3635 71.2929C11.1308 71.4804 11 71.7348 11 72C11 72.2652 11.1308 72.5195 11.3635 72.7071C11.5963 72.8946 11.912 73 12.2411 73H70.7497C71.077 73.0019 71.3919 72.8996 71.626 72.7154C71.8601 72.5312 71.9945 72.28 71.9998 72.0163C72.0052 71.7527 71.8812 71.4981 71.6547 71.3078C71.4282 71.1175 71.1176 71.0069 70.7905 71.0002H70.7497L12.2411 71Z" fill="#D9D9D9"/>
<path d="M99.9993 116L95.9341 116L94 100L100 100L99.9993 116Z" fill="#FFF3DE"/>
<path d="M101 119L88 119V118.842C88.0001 117.558 88.5332 116.326 89.4821 115.418C90.431 114.51 91.7179 114 93.0599 114H93.0602L101 114L101 119Z" fill="#494949"/>
<path d="M87.9995 115L83.6725 115L83 103L88 103L87.9995 115Z" fill="#FFF3DE"/>
<path d="M88.9997 119L76 119V118.842C76.0001 117.558 76.5332 116.326 77.4821 115.418C78.431 114.51 79.7179 114 81.0599 114H81.0602L89 114L88.9997 119Z" fill="#494949"/>
<path d="M108 38.1092L135 38V49.7924L108 51V38.1092Z" fill="#3F3D56"/>
<path d="M79.4461 78L79 77.9762L80.35 54H108V54.4361H80.7732L79.4461 78Z" fill="#929299"/>
<path d="M126 77.7739C125.835 78.2978 125.68 78.8326 125.534 79.3783L125.074 79.4283L110.77 81L78 77.7391L112.089 76L125.569 77.7196L126 77.7739Z" fill="#262633"/>
<path d="M101.456 66.3164L100.659 68.6216C100.659 68.6216 87.5762 64.6269 85.358 72.8401C83.1398 81.0534 83 109 83 109L88.4592 108.782L93.8907 80.7353L120 76.6313L119.167 62L101.456 66.3164Z" fill="#494949"/>
<path d="M111.89 66.7488C111.89 66.7488 93.6709 63.0478 92.3378 71.9736C91.0047 80.8994 94.0473 109 94.0473 109L99.3796 108.782C99.3796 108.782 105.447 84.1649 103.225 78.0693L118.258 77.1582C123.447 76.8436 127.686 72.8272 127.984 67.7413C128.099 65.7944 127.601 64.0275 125.887 63.0478C120.555 60 110.779 60 110.779 60L111.89 66.7488Z" fill="#494949"/>
<path d="M135.434 53H135V36L142 38.0871L141.879 38.5142L135.433 36.5924L135.434 53Z" fill="#3F3D56"/>
<path d="M138 35L143 36.6842L142.048 39L138 37.5263V35Z" fill="#262633"/>
<path d="M86 52V56H99V52.2645L86 52Z" fill="#929299"/>
<path d="M119 35.4918C118.995 36.4604 118.896 37.4262 118.702 38.3757L117.372 57.0684L104.004 60.8763L100.061 62L99.8814 60.9641L99.2087 57.1079L99 55.914L103.7 55.0778L111.32 53.7214L113.116 32C113.116 32 118.497 32.0544 118.647 32.6321C118.886 33.5668 119.005 34.5277 119 35.4918Z" fill="#E6E6E6"/>
<path d="M129.934 13.0411C129.717 12.621 129.468 12.2179 129.19 11.8351C128.473 10.8383 127.562 9.99493 126.511 9.35478C125.46 8.71462 124.291 8.29072 123.072 8.10817C122.453 8.01428 121.826 7.98139 121.2 8.00998C116.91 8.21489 113.237 11.3591 112.439 15.8053C112.431 15.8608 112.422 15.9121 112.414 15.9654L112.401 16.0487L111 25.1973L111.985 25.3468L115.831 25.9295L123.868 27.1483L129.486 28L130.887 18.8513C131.198 16.8631 130.864 14.828 129.934 13.0411Z" fill="#494949"/>
<path d="M120 24C123.866 24 127 20.866 127 17C127 13.134 123.866 10 120 10C116.134 10 113 13.134 113 17C113 20.866 116.134 24 120 24Z" fill="#FFF3DE"/>
<path d="M129 31.454L128.719 46.6802C128.654 46.7529 128.588 46.8256 128.527 46.9005C125.547 50.3788 124.967 55.3397 125.087 60.1265C125.098 60.6552 125.119 61.1817 125.148 61.7038C122.962 62.6774 120.672 63.6952 118.398 64.4926C117.951 64.649 117.507 64.7988 117.064 64.9354C113.395 66.0765 109.835 66.517 106.904 65.1557C105.835 64.6558 104.881 63.9364 104.102 63.0431L104 61.0451L106.651 55.8938L106.215 49.5055C103.521 42.6219 106.359 42.8674 108.521 33.9499C108.792 33.4282 109.177 32.9758 109.647 32.6269C110.116 32.2781 110.658 32.0419 111.232 31.9364L112.942 31.6214L124.738 31L128.436 31.2095L129 31.454Z" fill="#D9D9D9"/>
<path d="M129 13.3726L126.357 19L111 16.2675C111.355 14.2079 112.317 12.3154 113.753 10.8542C115.189 9.39301 117.027 8.43616 119.009 8.1173C120.992 7.79844 123.02 8.1335 124.812 9.07568C126.603 10.0179 128.067 11.5201 129 13.3726Z" fill="#494949"/>
<path d="M97.3869 51.1966C97.2756 51.0868 97.1301 51.0186 96.9745 51.0033C96.819 50.988 96.663 51.0265 96.5324 51.1124L91.3119 54.5137C91.2262 54.5696 91.154 54.644 91.1006 54.7313C91.0473 54.8187 91.0142 54.9169 91.0036 55.0187C90.9931 55.1206 91.0055 55.2235 91.0398 55.3199C91.0742 55.4163 91.1296 55.5039 91.2022 55.5761L104.479 68.7998C104.542 68.8634 104.618 68.9139 104.702 68.9482C104.785 68.9826 104.874 69.0002 104.965 69C105.055 68.9998 105.144 68.9819 105.227 68.9472C105.31 68.9125 105.386 68.8617 105.45 68.7978L105.457 68.7903L109.808 64.2857C109.934 64.1549 110.003 63.9798 110 63.7984C109.997 63.6171 109.923 63.4441 109.794 63.3169L97.3869 51.1966Z" fill="#CCCCCC"/>
<path d="M92.0863 54.1747L92.6249 53.8324C92.5681 53.9332 92.5472 54.0502 92.5656 54.1644C92.5841 54.2785 92.6407 54.3831 92.7264 54.461C92.812 54.539 92.9216 54.5857 93.0373 54.5935C93.153 54.6014 93.2679 54.5699 93.3634 54.5043L96.8481 52.1149C96.9272 52.0607 96.9895 51.9853 97.0279 51.8975C97.0662 51.8097 97.079 51.7129 97.0649 51.6181C97.0508 51.5234 97.0103 51.4345 96.948 51.3616C96.8857 51.2886 96.8041 51.2347 96.7125 51.2057L96.9899 51.0292C97.0258 51.0063 97.0686 50.9964 97.1111 51.0012C97.1535 51.0059 97.193 51.025 97.223 51.0553L108.946 62.5455C108.963 62.5629 108.977 62.5835 108.986 62.6062C108.995 62.6288 109 62.653 109 62.6775C109 62.7019 108.995 62.7261 108.985 62.7486C108.976 62.7711 108.962 62.7916 108.945 62.8088L108.941 62.8119L104.684 66.9493C104.649 66.9825 104.602 67.0007 104.553 67C104.505 66.9993 104.458 66.9798 104.424 66.9457L92.055 54.4626C92.0351 54.4429 92.02 54.4191 92.0107 54.3928C92.0014 54.3665 91.9981 54.3384 92.0011 54.3107C92.0041 54.283 92.0133 54.2563 92.0281 54.2326C92.0428 54.2089 92.0627 54.1888 92.0863 54.1738V54.1747Z" fill="white"/>
<path d="M106 60.3918L102.448 64L94 55.007L98.2875 52L106 60.3918Z" fill="#16B378"/>
<path d="M93.9635 56.9645C93.9869 56.941 94 56.9092 94 56.876C94 56.8428 93.9869 56.8109 93.9635 56.7875L93.2132 56.0355C93.1894 56.0127 93.1578 56 93.1249 56C93.092 56 93.0603 56.0127 93.0365 56.0355C93.0131 56.059 93 56.0908 93 56.124C93 56.1572 93.0131 56.1891 93.0365 56.2125L93.7868 56.9645C93.8106 56.9873 93.8422 57 93.8751 57C93.908 57 93.9397 56.9873 93.9635 56.9645Z" fill="#E6E6E6"/>
<path d="M94.9634 58.7868L94.2132 58.0366C94.2016 58.025 94.1878 58.0158 94.1727 58.0095C94.1575 58.0032 94.1413 58 94.1249 58C94.1085 58 94.0922 58.0032 94.0771 58.0095C94.0619 58.0158 94.0482 58.025 94.0366 58.0366C94.025 58.0482 94.0158 58.0619 94.0095 58.0771C94.0032 58.0923 94 58.1085 94 58.1249C94 58.1413 94.0032 58.1575 94.0095 58.1727C94.0158 58.1878 94.025 58.2016 94.0366 58.2132L94.7868 58.9634C94.8102 58.9868 94.842 59 94.8751 59C94.9082 59 94.94 58.9868 94.9634 58.9634C94.9868 58.94 95 58.9082 95 58.8751C95 58.842 94.9868 58.8102 94.9634 58.7868Z" fill="#E6E6E6"/>
<path d="M106 65C106.552 65 107 64.5523 107 64C107 63.4477 106.552 63 106 63C105.448 63 105 63.4477 105 64C105 64.5523 105.448 65 106 65Z" fill="#16B378"/>
<path d="M150 119H32V119.438H150V119Z" fill="#494949"/>
<path d="M108.62 63.9701C108.861 63.7 109.162 63.4836 109.5 63.3361C109.838 63.1886 110.206 63.1136 110.578 63.1163C110.95 63.1191 111.317 63.1995 111.653 63.352C111.989 63.5045 112.286 63.7252 112.522 63.9988L121 61L119.94 65.3628L112.052 67.5416C111.543 67.89 110.918 68.0485 110.295 67.987C109.672 67.9256 109.094 67.6485 108.671 67.2083C108.248 66.768 108.01 66.1952 108 65.5984C107.991 65.0016 108.212 64.4222 108.62 63.9701Z" fill="#FFF3DE"/>
<path d="M122.663 72L117 61.3445L129.369 59.1546L129.206 31.4388V31C134.668 32.8482 137.899 38.2351 136.779 43.8132L135.443 62.4998L122.663 72Z" fill="#D9D9D9"/>
<path d="M120 54V58H133V54.2645L120 54Z" fill="#929299"/>
<path d="M135.565 64.6034L135.354 55.4463H115.083L114.436 80L114 79.9877L114.659 55H135.775L135.782 55.2156L136 64.5882L135.565 64.6034Z" fill="#929299"/>
</g>
<defs>
<clipPath id="clip0_502_2968">
<rect width="150" height="120" fill="white"/>
</clipPath>
</defs>
</svg>
