<svg width="97" height="120" viewBox="0 0 97 120" fill="none" xmlns="http://www.w3.org/2000/svg">
<g clip-path="url(#clip0_502_2938)">
<path d="M86.1499 25.6605L28.7349 18.4912C28.5802 18.4718 28.4245 18.4619 28.2685 18.4616C28.1148 18.4613 27.9613 18.4708 27.8088 18.49C27.6566 18.5091 27.5059 18.538 27.3576 18.5765C27.2075 18.6157 27.0601 18.6644 26.9165 18.7223C26.7757 18.7789 26.6386 18.8438 26.5059 18.9166C26.3714 18.9901 26.2414 19.0712 26.1167 19.1596C25.989 19.2504 25.8668 19.3481 25.7505 19.4524C25.6304 19.5597 25.5163 19.6733 25.4086 19.7926C25.2981 19.9154 25.1941 20.0437 25.097 20.177C24.9989 20.3119 24.9069 20.4523 24.8209 20.5981C24.7349 20.7443 24.6551 20.8964 24.5815 21.0544C24.5079 21.2123 24.4408 21.3756 24.3801 21.5442C24.3172 21.7185 24.2621 21.8967 24.2148 22.0788C24.1675 22.2608 24.128 22.4461 24.0963 22.6344C24.0652 22.8227 24.0414 23.014 24.0248 23.2084C24.0083 23.4027 24 23.5995 24 23.7985C24.0007 23.9975 24.0089 24.1957 24.0248 24.3934C24.0407 24.591 24.0645 24.787 24.0963 24.9814C24.1283 25.1766 24.168 25.3698 24.2153 25.5611C24.2626 25.7524 24.3177 25.9415 24.3806 26.1285C24.4413 26.3091 24.5084 26.4856 24.582 26.6579C24.6556 26.8304 24.7354 26.9982 24.8214 27.1614C24.9074 27.3245 24.9994 27.4829 25.0975 27.6366C25.1954 27.791 25.2993 27.9395 25.4091 28.0822C25.5189 28.225 25.6329 28.3611 25.751 28.4907C25.8691 28.6195 25.9911 28.741 26.1171 28.8552C26.2432 28.9694 26.3729 29.076 26.5064 29.1752C26.6384 29.2733 26.7754 29.3648 26.917 29.4492C27.0595 29.5344 27.2067 29.6117 27.3581 29.6808C27.5049 29.7478 27.6555 29.8063 27.8093 29.856C27.96 29.9047 28.1135 29.9444 28.269 29.9748C28.423 30.0049 28.5788 30.0255 28.7354 30.0368L86.1504 34.1501C86.3174 34.162 86.4853 34.1456 86.6466 34.1015C86.7287 34.0791 86.8088 34.0502 86.886 34.015C86.9666 33.9783 87.0443 33.9356 87.1185 33.8874C87.1936 33.8386 87.2653 33.7851 87.3333 33.7271C87.4046 33.6662 87.4722 33.6013 87.5357 33.5327C87.6028 33.4602 87.666 33.3843 87.725 33.3053C87.786 33.2239 87.8447 33.1373 87.9009 33.0453C87.9571 32.9533 88.0103 32.8573 88.0604 32.7574C88.1105 32.6574 88.1574 32.5536 88.2011 32.4459C88.2449 32.3383 88.2854 32.227 88.3227 32.112C88.3599 31.997 88.3938 31.8786 88.4244 31.7568C88.4566 31.6307 88.4844 31.5025 88.5077 31.3719C88.531 31.2413 88.551 31.1088 88.5675 30.9744C88.5836 30.8399 88.5955 30.7037 88.6035 30.5657C88.6114 30.4277 88.6154 30.2881 88.6154 30.147C88.6149 30.0061 88.6109 29.8658 88.6035 29.7262C88.596 29.5866 88.5841 29.448 88.5675 29.3105C88.5515 29.173 88.5315 29.0366 88.5077 28.9013C88.4839 28.7661 88.4561 28.6322 88.4244 28.4999C88.3938 28.3719 88.3599 28.2469 88.3227 28.1247C88.2858 28.0042 88.2452 27.8855 88.2011 27.7685C88.1569 27.6516 88.11 27.5382 88.0604 27.4284C88.0105 27.3187 87.9573 27.2123 87.9009 27.1091C87.8445 27.0059 87.7859 26.9078 87.725 26.8146C87.6642 26.7215 87.6011 26.6332 87.5357 26.5498C87.4704 26.4663 87.4029 26.3883 87.3333 26.3155C87.2654 26.2443 87.1937 26.1766 87.1185 26.1129C87.0447 26.0504 86.9671 25.9926 86.886 25.9396C86.8095 25.8897 86.7295 25.845 86.6466 25.806C86.5673 25.7688 86.4852 25.7376 86.401 25.7127C86.3189 25.6886 86.2349 25.6711 86.1499 25.6605Z" fill="#16B378"/>
<path d="M86.1499 42.0159L28.7349 40.6165C28.4235 40.6087 28.1123 40.641 27.8088 40.7127C27.6557 40.749 27.505 40.7949 27.3576 40.8503C27.2068 40.9069 27.0595 40.9726 26.9165 41.0472C26.7753 41.1209 26.6382 41.2025 26.5059 41.2916C26.3711 41.3825 26.2411 41.4807 26.1167 41.5857C25.9889 41.6936 25.8667 41.808 25.7505 41.9286C25.6322 42.0511 25.5183 42.1814 25.4086 42.3194C25.299 42.4577 25.1951 42.6019 25.097 42.7519C24.9989 42.9018 24.9069 43.0573 24.8209 43.2184C24.7349 43.3795 24.6551 43.5459 24.5815 43.7178C24.5079 43.8896 24.4408 44.0664 24.3801 44.248C24.3172 44.436 24.2621 44.627 24.2148 44.8211C24.1675 45.0151 24.128 45.2117 24.0963 45.4108C24.0652 45.6099 24.0413 45.8113 24.0248 46.015C24.0083 46.2186 24 46.4239 24 46.6307C24.0007 46.8376 24.0089 47.0428 24.0248 47.2462C24.0407 47.4497 24.0645 47.6509 24.0963 47.8499C24.1283 48.0478 24.168 48.2436 24.2153 48.4374C24.2626 48.6311 24.3177 48.8218 24.3805 49.0095C24.4412 49.1916 24.5084 49.3683 24.582 49.5396C24.6556 49.711 24.7354 49.8769 24.8214 50.0375C24.9074 50.1981 24.9994 50.353 25.0975 50.5023C25.1954 50.6511 25.2993 50.7941 25.4091 50.9315C25.5189 51.0688 25.6329 51.1983 25.751 51.32C25.8672 51.4399 25.9894 51.5535 26.1171 51.6606C26.2416 51.7648 26.3716 51.8622 26.5064 51.9522C26.6387 52.0405 26.7758 52.1211 26.917 52.1938C27.06 52.2675 27.2073 52.3323 27.3581 52.3879C27.5056 52.4423 27.6563 52.4873 27.8093 52.5225C27.9608 52.5576 28.1144 52.5829 28.269 52.5982C28.424 52.6133 28.5798 52.6185 28.7354 52.6136L86.1499 50.836C86.2343 50.8334 86.3183 50.8235 86.401 50.8065C86.4847 50.7892 86.5668 50.765 86.6466 50.734C86.7292 50.7019 86.8092 50.6634 86.886 50.6189C86.9669 50.572 87.0446 50.5196 87.1184 50.4619C87.1937 50.4031 87.2654 50.3399 87.3333 50.2725C87.4046 50.2018 87.4722 50.1273 87.5357 50.0494C87.6009 49.9699 87.664 49.8845 87.725 49.7931C87.786 49.7017 87.8447 49.6055 87.9009 49.5045C87.9571 49.4029 88.0103 49.2975 88.0604 49.1884C88.1105 49.0794 88.1574 48.9666 88.2011 48.8501C88.2449 48.7318 88.2854 48.6114 88.3227 48.4889C88.3599 48.3663 88.3938 48.2401 88.4244 48.1102C88.4566 47.9772 88.4844 47.8416 88.5077 47.7035C88.531 47.5653 88.551 47.4255 88.5675 47.2841C88.5836 47.1422 88.5955 46.9992 88.6035 46.8549C88.6114 46.7107 88.6154 46.5653 88.6154 46.4187C88.6149 46.2734 88.6109 46.1283 88.6035 45.9834C88.596 45.8385 88.584 45.6954 88.5675 45.5542C88.5515 45.4125 88.5315 45.2729 88.5077 45.1354C88.4839 44.9979 88.4561 44.8618 88.4244 44.7272C88.3936 44.5972 88.3596 44.4707 88.3224 44.3475C88.2852 44.2243 88.2448 44.1046 88.2011 43.9885C88.1576 43.8723 88.1108 43.7598 88.0607 43.6509C88.0106 43.542 87.9574 43.4371 87.9012 43.3361C87.8448 43.2349 87.7861 43.139 87.7253 43.0483C87.6644 42.9576 87.6013 42.8725 87.536 42.793C87.4724 42.7154 87.4049 42.6414 87.3335 42.5711C87.2657 42.5042 87.1939 42.4415 87.1187 42.3833C87.0448 42.3261 86.9672 42.2741 86.8863 42.2278C86.8093 42.1839 86.7292 42.1461 86.6466 42.1147C86.5668 42.0842 86.4846 42.0605 86.401 42.0437C86.3182 42.0273 86.2342 42.018 86.1499 42.0159Z" fill="#D9D9D9"/>
<path d="M86.1499 57.2345L28.7349 61.3472C28.5783 61.3584 28.4225 61.3791 28.2685 61.4092C28.113 61.4396 27.9595 61.4793 27.8088 61.528C27.655 61.5777 27.5044 61.6362 27.3576 61.7032C27.2063 61.7723 27.059 61.8496 26.9165 61.9348C26.7749 62.0192 26.6379 62.1107 26.5059 62.2088C26.3723 62.3088 26.2425 62.4155 26.1167 62.5288C25.9908 62.6427 25.8687 62.7642 25.7505 62.8933C25.6322 63.0224 25.5183 63.1586 25.4086 63.3018C25.299 63.4454 25.1951 63.5941 25.097 63.7479C24.9989 63.9016 24.9069 64.06 24.8209 64.2231C24.7349 64.3864 24.6551 64.5542 24.5815 64.7266C24.5079 64.899 24.4408 65.0754 24.3801 65.2561C24.3172 65.4427 24.2621 65.6318 24.2148 65.8234C24.1675 66.0151 24.128 66.2081 24.0963 66.4024C24.0652 66.5972 24.0414 66.7932 24.0248 66.9907C24.0083 67.1882 24 67.3864 24 67.5855C24.0007 67.7846 24.0089 67.9813 24.0248 68.1757C24.0407 68.3701 24.0645 68.5615 24.0963 68.7499C24.1283 68.9388 24.168 69.1241 24.2153 69.3058C24.2626 69.4876 24.3177 69.6658 24.3806 69.8404C24.4413 70.0092 24.5084 70.1725 24.582 70.3302C24.6556 70.4882 24.7354 70.6403 24.8214 70.7865C24.9074 70.9328 24.9994 71.0732 25.0975 71.2076C25.1946 71.3409 25.2986 71.4692 25.4091 71.592C25.5168 71.7113 25.6309 71.8249 25.751 71.9322C25.8673 72.0365 25.9895 72.1343 26.1171 72.225C26.2419 72.3134 26.3719 72.3946 26.5064 72.468C26.6391 72.5409 26.7762 72.6058 26.917 72.6624C27.0606 72.7202 27.208 72.7689 27.3581 72.8081C27.5064 72.8466 27.6571 72.8755 27.8093 72.8946C27.9618 72.9138 28.1153 72.9233 28.269 72.9231C28.425 72.9228 28.5807 72.9129 28.7354 72.8934L86.1499 65.7257C86.2349 65.7151 86.3189 65.6976 86.401 65.6735C86.4852 65.6487 86.5673 65.6175 86.6466 65.5802C86.7295 65.5412 86.8095 65.4966 86.886 65.4466C86.9671 65.3936 87.0447 65.3358 87.1185 65.2733C87.1937 65.2096 87.2654 65.1419 87.3333 65.0707C87.4021 64.9978 87.4696 64.9197 87.5357 64.8364C87.6009 64.7532 87.664 64.6649 87.725 64.5716C87.786 64.4783 87.8447 64.3801 87.9009 64.2771C87.9571 64.1747 88.0103 64.0683 88.0604 63.9578C88.1105 63.8473 88.1574 63.734 88.2011 63.6176C88.2449 63.5009 88.2854 63.3814 88.3227 63.2592C88.3599 63.1371 88.3938 63.0121 88.4244 62.8841C88.4566 62.7516 88.4844 62.6177 88.5077 62.4824C88.531 62.3472 88.551 62.2108 88.5675 62.0733C88.5836 61.9357 88.5955 61.7972 88.6035 61.6575C88.6114 61.5179 88.6154 61.3775 88.6154 61.2364C88.6147 61.0962 88.6107 60.957 88.6032 60.819C88.5958 60.681 88.5838 60.5448 88.5673 60.4103C88.5514 60.2754 88.5315 60.1426 88.5077 60.0121C88.4839 59.8815 88.4561 59.7532 88.4244 59.6272C88.3938 59.5052 88.3599 59.3868 88.3226 59.2719C88.2859 59.1571 88.2455 59.0458 88.2013 58.9381C88.1572 58.8303 88.1103 58.7265 88.0607 58.6266C88.0102 58.5274 87.9568 58.4317 87.9004 58.3394C87.844 58.247 87.7854 58.1604 87.7245 58.0794C87.6655 58.0004 87.6023 57.9245 87.5352 57.8519C87.4717 57.7833 87.4041 57.7184 87.3328 57.6576C87.2648 57.5996 87.1931 57.546 87.1179 57.4972C87.0438 57.449 86.9661 57.4064 86.8855 57.3696C86.8083 57.3344 86.7282 57.3055 86.6461 57.2831C86.4848 57.2391 86.3169 57.2226 86.1499 57.2345Z" fill="#D9D9D9"/>
<path d="M54.8726 58.6189C55.2334 59.2175 55.8017 59.6629 56.4698 59.8708C57.1379 60.0787 57.8593 60.0345 58.4969 59.7467C59.1345 59.4588 59.644 58.9472 59.9287 58.3092C60.2133 57.6711 60.2533 56.951 60.0411 56.2854L71.0769 33.6576L65.7944 30.4615L56.2637 54.4969C56.2273 54.511 56.1914 54.5259 56.1561 54.5413C56.1208 54.5568 56.0856 54.573 56.0505 54.5898C56.0154 54.6067 55.9806 54.6244 55.9461 54.643C55.9116 54.6617 55.8773 54.6812 55.8433 54.7017C55.1942 55.0928 54.7273 55.7251 54.5452 56.4596C54.3632 57.1941 54.4809 57.9707 54.8724 58.6187L54.8726 58.6189Z" fill="#FFF3DE"/>
<path d="M68.6131 42.4615L60.9231 40.4541C60.9231 40.4541 61.1742 39.876 61.5822 38.9183C61.9903 37.9607 62.5604 36.6252 63.2018 35.109C63.8431 33.5928 64.5547 31.8987 65.2498 30.2241C65.9448 28.5495 66.6207 26.895 67.19 25.4609C67.7593 24.0268 68.4061 23.1679 69.0561 22.6865C69.594 22.2701 70.2716 22.0866 70.9416 22.176C71.4623 22.255 71.9601 22.4479 72.4006 22.7416C72.6091 22.8738 72.8052 23.0253 72.9863 23.1944L74.7692 26.4968L68.6131 42.4615Z" fill="#CCCCCC"/>
<path d="M6.59291 40.6282C6.40584 40.6422 6.21969 40.6667 6.03533 40.7017C5.84979 40.7368 5.66632 40.7823 5.48576 40.8379C5.30245 40.8945 5.1223 40.961 4.94611 41.0373C4.7658 41.1153 4.58964 41.2027 4.41836 41.2993C4.25076 41.3945 4.08696 41.498 3.92696 41.6099C3.76696 41.7217 3.61156 41.8419 3.46077 41.9704C3.31014 42.0986 3.16396 42.2352 3.02222 42.3804C2.88048 42.5255 2.74392 42.6786 2.61253 42.8396C2.48113 43.0006 2.3566 43.1674 2.23894 43.34C2.12128 43.5126 2.0109 43.6904 1.90779 43.8734C1.80565 44.0568 1.71013 44.2451 1.62124 44.4384C1.53235 44.6318 1.45154 44.8296 1.37882 45.0319C1.30302 45.2417 1.23667 45.4537 1.17978 45.6679C1.12289 45.8822 1.07546 46.0982 1.03748 46.316C0.999337 46.5338 0.970733 46.7531 0.951663 46.9738C0.932592 47.1946 0.92306 47.4163 0.923065 47.6388C0.923065 47.8614 0.932597 48.0811 0.951663 48.2979C0.970728 48.5147 0.999332 48.7282 1.03748 48.9384C1.07546 49.1485 1.12289 49.3549 1.17978 49.5575C1.23667 49.7601 1.30278 49.9586 1.37809 50.1529C1.45146 50.3405 1.53227 50.522 1.62051 50.6974C1.70774 50.8709 1.80353 51.04 1.90755 51.2039C2.00993 51.3646 2.12046 51.52 2.2387 51.6692C2.35582 51.8176 2.4806 51.9596 2.61252 52.0946C2.74227 52.2274 2.87904 52.353 3.02222 52.4708C3.16244 52.5862 3.30893 52.6936 3.46101 52.7924C3.76115 52.9876 4.08244 53.1473 4.4186 53.2685C4.76319 53.3929 5.1213 53.4752 5.48527 53.5135C5.66783 53.5325 5.85134 53.5407 6.03485 53.538C6.22131 53.5353 6.40746 53.522 6.59243 53.498C6.77906 53.474 6.96423 53.4396 7.1471 53.3949C7.33052 53.3501 7.51139 53.2952 7.68892 53.2306C7.86846 53.1651 8.04447 53.0902 8.2162 53.006C8.39117 52.9202 8.56174 52.8256 8.72723 52.7224C8.88836 52.6208 9.0453 52.5119 9.19802 52.3957C9.35075 52.2794 9.49871 52.1555 9.64191 52.0239C9.7851 51.8923 9.92336 51.7535 10.0567 51.6075C10.19 51.4615 10.3182 51.3084 10.4412 51.148C10.565 50.9879 10.6815 50.8229 10.7908 50.653C10.9 50.4832 11.0023 50.3089 11.0977 50.1301C11.193 49.9513 11.2813 49.7684 11.3624 49.5813C11.4435 49.3942 11.5175 49.2031 11.5842 49.0082C11.6534 48.8064 11.7139 48.6028 11.7658 48.3976C11.8177 48.1923 11.861 47.9856 11.8957 47.7774C11.9303 47.5691 11.9564 47.3597 11.9738 47.1492C11.9913 46.9388 12 46.7274 12 46.5151C11.9998 46.3029 11.9911 46.0932 11.9738 45.8862C11.9565 45.6791 11.9305 45.475 11.8957 45.2739C11.8612 45.073 11.8178 44.8751 11.7658 44.6802C11.7138 44.4852 11.6532 44.2939 11.5842 44.1063C11.5172 43.9248 11.4432 43.7487 11.3624 43.578C11.2805 43.4079 11.1918 43.2428 11.0965 43.0828C10.9077 42.7666 10.6882 42.4701 10.4412 42.1979C10.32 42.064 10.192 41.9366 10.0577 41.8161C9.92542 41.6979 9.78696 41.5869 9.64288 41.4837C9.50018 41.3816 9.35199 41.2875 9.199 41.2018C9.04611 41.1163 8.88861 41.0394 8.72724 40.9716C8.39404 40.8314 8.0456 40.7315 7.68917 40.674C7.50978 40.6451 7.32886 40.6269 7.14735 40.6194C6.96244 40.6118 6.77724 40.615 6.59268 40.6287" fill="#D9D9D9"/>
<path d="M6.59291 63.7052C6.40584 63.7191 6.21969 63.7436 6.03533 63.7786C5.84979 63.8137 5.66632 63.8592 5.48576 63.9148C5.30245 63.9714 5.1223 64.0379 4.94611 64.1142C4.7658 64.1922 4.58964 64.2797 4.41836 64.3762C4.25076 64.4714 4.08696 64.575 3.92696 64.6868C3.76696 64.7986 3.61156 64.9188 3.46077 65.0473C3.31014 65.1755 3.16396 65.3122 3.02222 65.4573C2.88048 65.6025 2.74392 65.7555 2.61253 65.9165C2.48113 66.0775 2.3566 66.2443 2.23894 66.4169C2.12128 66.5895 2.0109 66.7673 1.90779 66.9503C1.80565 67.1337 1.71013 67.322 1.62124 67.5154C1.53235 67.7087 1.45154 67.9065 1.37882 68.1088C1.30302 68.3186 1.23667 68.5306 1.17978 68.7449C1.12289 68.9591 1.07546 69.1751 1.03748 69.3929C0.999337 69.6107 0.970733 69.83 0.951663 70.0508C0.932592 70.2715 0.92306 70.4932 0.923065 70.7157C0.923065 70.9383 0.932597 71.158 0.951663 71.3748C0.970728 71.5916 0.999332 71.8051 1.03748 72.0153C1.07546 72.2254 1.12289 72.4318 1.17978 72.6344C1.23667 72.8371 1.30278 73.0355 1.37809 73.2298C1.45146 73.4174 1.53227 73.5989 1.62051 73.7743C1.70774 73.9479 1.80353 74.1169 1.90755 74.2808C2.00993 74.4415 2.12046 74.5969 2.2387 74.7461C2.35582 74.8945 2.4806 75.0365 2.61252 75.1716C2.74227 75.3043 2.87904 75.4299 3.02222 75.5478C3.16244 75.6631 3.30893 75.7705 3.46101 75.8693C3.76115 76.0645 4.08244 76.2242 4.4186 76.3455C4.76319 76.4699 5.1213 76.5521 5.48527 76.5904C5.66783 76.6094 5.85134 76.6176 6.03485 76.6149C6.22131 76.6122 6.40746 76.5989 6.59243 76.575C6.77906 76.5509 6.96423 76.5165 7.1471 76.4718C7.33052 76.427 7.51139 76.3722 7.68892 76.3075C7.86846 76.2421 8.04447 76.1671 8.2162 76.0829C8.39117 75.9971 8.56174 75.9025 8.72723 75.7993C8.88836 75.6977 9.0453 75.5888 9.19802 75.4726C9.35075 75.3563 9.49871 75.2324 9.64191 75.1008C9.7851 74.9692 9.92336 74.8304 10.0567 74.6844C10.19 74.5384 10.3182 74.3853 10.4412 74.2249C10.565 74.0648 10.6815 73.8998 10.7908 73.73C10.9 73.5602 11.0023 73.3859 11.0977 73.2071C11.193 73.0283 11.2813 72.8453 11.3624 72.6582C11.4435 72.4711 11.5175 72.28 11.5842 72.0851C11.6534 71.8833 11.7139 71.6797 11.7658 71.4745C11.8177 71.2693 11.861 71.0625 11.8957 70.8544C11.9303 70.646 11.9564 70.4366 11.9738 70.2261C11.9913 70.0157 12 69.8043 12 69.592C11.9998 69.3798 11.9911 69.1701 11.9738 68.9631C11.9565 68.756 11.9305 68.5519 11.8957 68.3508C11.8612 68.15 11.8178 67.9521 11.7658 67.7571C11.7138 67.5621 11.6532 67.3709 11.5842 67.1833C11.5172 67.0017 11.4432 66.8256 11.3624 66.655C11.2805 66.4848 11.1918 66.3198 11.0965 66.1597C10.9077 65.8435 10.6882 65.5471 10.4412 65.2748C10.32 65.1409 10.192 65.0135 10.0577 64.893C9.92542 64.7748 9.78696 64.6638 9.64288 64.5607C9.50018 64.4585 9.35199 64.3644 9.199 64.2787C9.04611 64.1932 8.88861 64.1163 8.72724 64.0485C8.39404 63.9083 8.0456 63.8084 7.68917 63.7509C7.50978 63.7221 7.32886 63.7038 7.14735 63.6963C6.96244 63.6888 6.77724 63.6919 6.59268 63.7056" fill="#D9D9D9"/>
<path d="M6.15653 15.3724C5.9725 15.3679 5.78837 15.3739 5.60503 15.3904C5.42244 15.4069 5.24095 15.4338 5.06145 15.4712C4.88093 15.5091 4.70271 15.5572 4.52769 15.6155C4.34997 15.6745 4.17569 15.7435 4.00568 15.8221C3.83927 15.899 3.67703 15.9847 3.51964 16.0788C3.3607 16.1738 3.20679 16.277 3.05854 16.3881C2.9079 16.5009 2.76305 16.6213 2.62454 16.7488C2.48371 16.8786 2.34839 17.016 2.21859 17.1613C2.08863 17.3068 1.96546 17.4586 1.84908 17.6169C1.7327 17.7751 1.62352 17.9391 1.52154 18.109C1.42003 18.281 1.32531 18.4573 1.23739 18.6378C1.14947 18.8184 1.06955 19.0049 0.997613 19.1973C0.923122 19.3956 0.857739 19.5973 0.801468 19.8022C0.745198 20.0071 0.69828 20.2147 0.660716 20.4249C0.622989 20.6357 0.594697 20.8483 0.575835 21.0627C0.556972 21.2771 0.547544 21.4936 0.547549 21.7121C0.547549 21.9303 0.556978 22.1468 0.575835 22.3615C0.594692 22.5762 0.622984 22.7886 0.660716 22.9986C0.698281 23.2087 0.7452 23.4159 0.801468 23.6204C0.857737 23.8248 0.92312 24.026 0.997613 24.2241C1.07019 24.4154 1.15011 24.6014 1.23739 24.7821C1.32531 24.9621 1.42026 25.1368 1.52224 25.3062C1.62422 25.4755 1.73341 25.6388 1.84979 25.7961C1.966 25.9539 2.08917 26.1049 2.21929 26.2492C2.34942 26.3935 2.4845 26.5298 2.62453 26.6581C2.76231 26.7851 2.90644 26.9051 3.05637 27.0174C3.20464 27.1275 3.35855 27.2297 3.51747 27.3236C3.67489 27.4167 3.83714 27.5013 4.00351 27.5771C4.17357 27.6546 4.34785 27.7225 4.52552 27.7803C4.87514 27.8938 5.23664 27.9665 5.60286 27.9968C5.96957 28.0273 6.33854 28.0161 6.70274 27.9634C6.8833 27.9372 7.06223 27.9007 7.23866 27.8542C7.41554 27.8074 7.58965 27.7507 7.76018 27.6844C7.93271 27.6173 8.10145 27.5408 8.26564 27.4552C8.42575 27.3717 8.5815 27.2801 8.73226 27.1807C8.8839 27.0807 9.03043 26.973 9.1713 26.8582C9.31293 26.7428 9.44969 26.6198 9.58157 26.4893C9.71345 26.3587 9.84021 26.2207 9.96186 26.0751C10.0843 25.9295 10.1996 25.7786 10.3076 25.6224C10.4157 25.4663 10.5169 25.3049 10.6112 25.1385C10.7058 24.9721 10.7931 24.8009 10.873 24.625C10.953 24.4491 11.0261 24.269 11.0924 24.0846C11.1609 23.8931 11.2207 23.6991 11.272 23.5025C11.3234 23.3059 11.3662 23.1071 11.4006 22.906C11.4348 22.7042 11.4605 22.5007 11.4778 22.2956C11.495 22.0905 11.5037 21.8838 11.5037 21.6753C11.5035 21.467 11.4949 21.2603 11.4778 21.0553C11.4607 20.8502 11.4349 20.6473 11.4006 20.4465C11.3664 20.2456 11.3235 20.0469 11.272 19.8505C11.2206 19.6541 11.1607 19.4604 11.0924 19.2694C11.0261 19.0849 10.953 18.9049 10.873 18.7295C10.7931 18.5541 10.7054 18.3832 10.61 18.2169C10.5157 18.0521 10.4145 17.8918 10.3064 17.7359C10.1984 17.58 10.0835 17.43 9.96186 17.2857C9.84102 17.1415 9.71457 17.0045 9.58253 16.8746C9.45048 16.7447 9.31372 16.6226 9.17226 16.5083C9.03147 16.3942 8.88501 16.2872 8.73346 16.1879C8.58268 16.0894 8.42693 15.9988 8.26684 15.9164C8.10261 15.8318 7.93387 15.7563 7.76138 15.6903C7.5908 15.625 7.41668 15.5695 7.23986 15.5239C7.06337 15.4784 6.88444 15.4431 6.70394 15.4181C6.52205 15.3929 6.33888 15.3781 6.15532 15.3738M6.15532 14.772C6.96081 14.7941 7.75081 14.9992 8.46586 15.3719C9.17644 15.7446 9.80627 16.2549 10.3189 16.8734C10.8548 17.518 11.2721 18.253 11.5514 19.0441C12.1495 20.7469 12.1495 22.6036 11.5514 24.3063C11.2718 25.0997 10.8545 25.8373 10.3189 26.4849C9.8062 27.1063 9.17644 27.6203 8.46562 27.9975C7.75151 28.3746 6.96163 28.5849 6.15508 28.6125C5.34356 28.6392 4.53682 28.4779 3.79754 28.1411C3.05121 27.7982 2.38354 27.3044 1.83636 26.6906C1.25531 26.0406 0.800544 25.2873 0.495501 24.4696C-0.165167 22.6896 -0.165167 20.7305 0.495501 18.9505C0.800843 18.1304 1.25552 17.3744 1.83636 16.7209C2.38337 16.1037 3.05087 15.6056 3.79754 15.2576C4.53625 14.9161 5.3434 14.7496 6.15652 14.7711L6.15532 14.772Z" fill="#16B378"/>
<path d="M6.56741 24L4.61539 19.8117L5.0788 19.5009L6.6866 22.9416L13.4375 14.7692L13.8462 15.2177L6.56741 24Z" fill="#16B378"/>
<path d="M76.6154 103.404L72 103.385L73.4883 116.291L76.6154 116.308V103.404Z" fill="#FFF3DE"/>
<path d="M77.5385 119.077L67.3846 119.017V118.873C67.3845 118.58 67.4099 118.288 67.4605 118.002C67.5603 117.436 67.7593 116.897 68.0459 116.418C68.337 115.933 68.7101 115.516 69.1441 115.192C69.5723 114.872 70.0527 114.652 70.5576 114.542C70.8135 114.487 71.0737 114.46 71.3343 114.462L77.5385 114.496V119.077Z" fill="#494949"/>
<path d="M60.9231 103.404L56.3077 103.385L57.7955 116.291L60.9231 116.308V103.404Z" fill="#FFF3DE"/>
<path d="M61.8462 119.077L51.6923 119.017V118.873C51.6922 118.58 51.7177 118.289 51.7684 118.002C51.8682 117.436 52.0671 116.898 52.3537 116.419C52.6446 115.933 53.0178 115.516 53.4521 115.191C53.8803 114.872 54.3608 114.651 54.8657 114.542C55.1217 114.487 55.3819 114.46 55.6426 114.462L61.8462 114.496V119.077Z" fill="#494949"/>
<path d="M61.6612 51.6923L53.5385 81.6736L56.5116 110.413L63.0949 110.593L61.6615 84.6425L69.8741 71.6924L71.6553 110.769L77.627 110.352L80.9489 76.7534C82.0772 74.13 82.9047 71.3897 83.4158 68.584C83.8175 66.3816 84.0128 64.1473 83.9993 61.9094C83.9925 60.4028 83.8755 58.8987 83.6491 57.4089C83.5682 56.8536 83.4586 56.3029 83.3209 55.7587L80.899 53.3304L61.6612 51.6923Z" fill="#494949"/>
<path d="M72.0179 56.3077C70.6674 56.3077 69.4003 56.2646 68.2513 56.1794C67.0775 56.0993 65.91 55.9464 64.7554 55.7217C63.7724 55.539 62.815 55.2391 61.9041 54.8286C61.1708 54.5135 60.5332 54.0129 60.0547 53.3765L60 53.2973L62.1949 39.0864L64.5618 23.1078C64.7176 22.0504 65.2588 21.087 66.0824 20.4008C66.9059 19.7146 67.9544 19.3537 69.0281 19.3867L76.4409 19.6127C76.9968 19.6296 77.5436 19.7574 78.0489 19.9885C78.5543 20.2196 79.0078 20.5493 79.3826 20.958C79.7575 21.3667 80.0461 21.8462 80.2312 22.3679C80.4164 22.8896 80.4944 23.443 80.4606 23.9953L79.4875 39.8861L83.0769 55.5607L82.8227 55.596C82.7205 55.6095 82.3265 55.6612 81.7095 55.7303C80.9029 55.8205 80.0793 55.9017 79.2617 55.9719C78.1049 56.0711 76.9729 56.1491 75.8972 56.2038C74.5329 56.273 73.2254 56.3065 72.0179 56.3077Z" fill="#D9D9D9"/>
<path d="M67.6379 16.6154C67.636 16.6154 67.634 16.6154 67.6321 16.6154C67.4783 16.6153 67.326 16.5847 67.1839 16.5254C67.0418 16.4661 66.9128 16.3792 66.8041 16.2697C66.6954 16.1602 66.6092 16.0302 66.5504 15.8872C66.4917 15.7442 66.4615 15.5909 66.4616 15.4361V8.85925C66.4604 7.68094 66.6948 6.51442 67.1507 5.42906C68.0434 3.31102 69.714 1.62131 71.8144 0.71208C73.1428 0.138789 74.5917 -0.0940691 76.0315 0.0343567C77.4713 0.162782 78.8569 0.648481 80.0644 1.44796C81.2718 2.24745 82.2634 3.33575 82.9502 4.61543C83.637 5.8951 83.9977 7.3262 84 8.78055V15.3675C84.0002 15.526 83.9686 15.6829 83.9072 15.8289C83.7869 16.1137 83.5618 16.3406 83.2791 16.4624C83.134 16.5247 82.978 16.557 82.8202 16.5575L67.637 16.6154H67.6379Z" fill="#494949"/>
<path d="M79.5123 7.02955C80.1268 8.15226 80.3949 9.43196 80.2828 10.707C80.1707 11.9821 79.6833 13.1953 78.8823 14.1934C78.0813 15.1916 77.0025 15.9299 75.7823 16.3151C74.562 16.7004 73.255 16.7152 72.0263 16.3579C71.2127 16.124 70.4536 15.7309 69.7929 15.2015C69.1322 14.6721 68.5832 14.0167 68.1775 13.2735C67.5645 12.1513 67.2973 10.8726 67.4097 9.59872C67.5221 8.32484 68.0091 7.11277 68.8092 6.11533C69.6093 5.1179 70.6867 4.37976 71.9056 3.99399C73.1245 3.60822 74.4303 3.59209 75.6584 3.94762C76.4727 4.18063 77.2327 4.57306 77.8943 5.10215C78.5559 5.63124 79.1058 6.28646 79.5123 7.0298V7.02955Z" fill="#FFF3DE"/>
<path d="M64.6154 10.0174C64.6145 9.05402 64.8062 8.10028 65.179 7.21288C65.9089 5.48146 67.275 4.10027 68.9925 3.35729C69.8737 2.97749 70.8218 2.77986 71.7805 2.77617L73.1333 2.76935C73.1485 2.76926 73.1636 2.76922 73.1788 2.76923C74.1156 2.76981 75.0431 2.95598 75.9083 3.31712C76.7735 3.67826 77.5595 4.2073 78.2215 4.87402C78.8835 5.54074 79.4084 6.33209 79.7664 7.20289C80.1243 8.07369 80.3082 9.00689 80.3077 9.94919V10.0854L77.4459 10.097L76.4701 7.35462L76.2749 10.1023L74.7968 10.1089L74.3047 8.7253L74.206 10.1106L64.6166 10.1538L64.6154 10.0174Z" fill="#494949"/>
<path d="M53.1043 23.1637C52.673 23.2692 52.2698 23.4669 51.9222 23.7431C51.6506 23.9581 51.4183 24.2186 51.2358 24.513C50.8757 25.0957 50.7171 25.7806 50.7843 26.4622C50.8182 26.8066 50.9116 27.1425 51.0603 27.4549C51.2436 27.8443 51.5074 28.1903 51.8342 28.4702C52.1611 28.7501 52.5436 28.9574 52.9565 29.0786C53.3694 29.1997 53.8032 29.2318 54.2294 29.1729C54.6557 29.1139 55.0645 28.9652 55.4291 28.7365C55.4559 28.7192 55.4825 28.7016 55.5089 28.6837C55.5352 28.6659 55.5611 28.6476 55.5865 28.6291C55.6121 28.6104 55.6372 28.5915 55.6619 28.5723C55.6865 28.5531 55.711 28.5336 55.7354 28.5138L71.1995 34.0191C71.6753 34.1884 72.1932 34.1985 72.6752 34.0478C73.1573 33.8972 73.5774 33.5941 73.8723 33.184L77.5385 28.1066L73.106 25.121L70.7799 27.7641L56.6277 24.9481C56.6123 24.9114 56.5963 24.8749 56.5797 24.8386C56.5632 24.8023 56.5459 24.7661 56.5279 24.7301C56.5096 24.6942 56.4908 24.6585 56.4714 24.623C56.452 24.5875 56.4315 24.5522 56.4099 24.5173C56.0722 23.9716 55.5706 23.5467 54.9768 23.3036C54.383 23.0605 53.7276 23.0115 53.1043 23.1637Z" fill="#FFF3DE"/>
<path d="M70.8414 25.9145C71.312 25.3478 71.9701 24.612 72.6387 23.8823C73.3072 23.1525 73.9857 22.4292 74.4975 21.8881C75.0093 21.3471 75.3537 20.9885 75.3537 20.9885C75.8261 20.2993 76.5312 19.7892 77.3492 19.5448C78.1672 19.3003 79.0478 19.3366 79.8412 19.6474C80.6346 19.9583 81.2921 20.5245 81.7019 21.25C82.1116 21.9755 82.2485 22.8154 82.0891 23.6272C81.9981 24.0945 81.81 24.5393 81.5362 24.9346C81.5362 24.9346 81.0228 25.5827 80.248 26.5499C79.4732 27.5172 78.4365 28.8048 77.3908 30.0849C76.3452 31.365 75.2893 32.6385 74.4751 33.5785C73.661 34.5186 73.0881 35.1258 73.0074 35.0738L70.1675 26.9297C70.0868 26.8777 70.3707 26.4812 70.8414 25.9145Z" fill="#D9D9D9"/>
<path d="M72.9469 17.0067C72.903 17.2255 72.92 17.4525 72.9962 17.6619C73.0345 17.7691 73.0872 17.8703 73.153 17.9625C73.2093 18.0411 73.2745 18.1126 73.3472 18.1755C73.5627 18.3614 73.836 18.4628 74.1182 18.4615C74.1357 18.4613 74.1533 18.4608 74.1709 18.46C74.1885 18.4592 74.2061 18.4579 74.2237 18.4562C74.2414 18.4547 74.2591 18.4527 74.2766 18.4502C74.2942 18.4477 74.3119 18.4448 74.3296 18.4416L75.3264 18.2568L76.6992 15.2636V18.0052L81.2308 17.1727V5.53845L73.6339 5.57568L73.8217 5.79828C74.4451 6.54518 74.8544 7.45313 75.0047 8.42218C75.1521 9.40369 75.1336 10.4037 74.95 11.3788C74.7716 12.3655 74.5007 13.3325 74.1411 14.2663C73.8268 15.0936 73.466 15.9018 73.0606 16.6868C73.0082 16.7875 72.97 16.8952 72.9469 17.0067Z" fill="#494949"/>
<path d="M20.5077 120H96.723C96.7761 120 96.827 119.951 96.8645 119.865C96.902 119.778 96.9231 119.661 96.9231 119.538C96.9231 119.416 96.902 119.299 96.8645 119.212C96.827 119.126 96.7761 119.077 96.723 119.077H20.5077C20.4547 119.077 20.4038 119.126 20.3663 119.212C20.3288 119.299 20.3077 119.416 20.3077 119.538C20.3077 119.661 20.3288 119.778 20.3663 119.865C20.4038 119.951 20.4547 120 20.5077 120Z" fill="#494949"/>
</g>
<defs>
<clipPath id="clip0_502_2938">
<rect width="96.9231" height="120" fill="white"/>
</clipPath>
</defs>
</svg>
